<svg xmlns="http://www.w3.org/2000/svg" xmlns:xlink="http://www.w3.org/1999/xlink" width="14" height="14" viewBox="0 0 14 14">
    <defs>
        <path id="a" d="M.012.092H14v14H.012z"/>
    </defs>
    <g fill="none" fill-rule="evenodd">
        <g>
            <mask id="b" fill="#fff">
                <use xlink:href="#a"/>
            </mask>
            <path fill="#D5D6E1" d="M13.36 4.337c-.733-1.71-1.98-2.954-3.705-3.69A6.836 6.836 0 0 0 6.947.092c-.944 0-1.84.186-2.701.555-1.71.734-2.963 1.977-3.698 3.69A6.78 6.78 0 0 0 0 7.038c0 .944.18 1.85.548 2.709.735 1.713 1.987 2.964 3.698 3.698.86.37 1.757.555 2.7.555.944 0 1.848-.187 2.71-.555 1.724-.736 2.97-1.988 3.704-3.698.37-.861.556-1.765.556-2.709 0-.944-.185-1.84-.556-2.7zm-1.11 5.775a6.098 6.098 0 0 1-2.237 2.23 5.99 5.99 0 0 1-3.066.821 5.89 5.89 0 0 1-2.374-.487 6.23 6.23 0 0 1-1.948-1.3 6.179 6.179 0 0 1-1.3-1.957 5.981 5.981 0 0 1-.48-2.38c0-1.104.27-2.125.814-3.06a6.106 6.106 0 0 1 2.23-2.229A5.947 5.947 0 0 1 6.946.928c1.103 0 2.129.276 3.066.822a6.129 6.129 0 0 1 2.237 2.23c.548.935.821 1.955.821 3.058a6.004 6.004 0 0 1-.821 3.074z" mask="url(#b)"/>
        </g>
        <path fill="#D5D6E1" d="M7.388 6.977V3.036a.439.439 0 0 0-.441-.427.429.429 0 0 0-.419.427v4.002c0 .008.015.038.015.06a.4.4 0 0 0 .115.344l2.274 2.275a.433.433 0 0 0 .586 0 .41.41 0 0 0 0-.594l-2.13-2.146z"/>
    </g>
</svg>
