<svg xmlns="http://www.w3.org/2000/svg" width="23" height="18" viewBox="0 0 23 18">
    <g fill="none" fill-rule="evenodd" stroke="#D5D6E1">
        <path d="M22.429 12.429c0 1.183-.419 2.193-1.256 3.03-.837.837-1.847 1.255-3.03 1.255H6c-1.376 0-2.554-.489-3.532-1.467C1.489 14.268 1 13.09 1 11.714c0-.967.26-1.86.781-2.678A4.885 4.885 0 0 1 3.88 7.194a8.225 8.225 0 0 1-.022-.48c0-1.577.558-2.924 1.674-4.04C6.647 1.558 7.994 1 9.571 1c1.161 0 2.223.324 3.187.971a5.598 5.598 0 0 1 2.104 2.578 2.729 2.729 0 0 1 1.852-.692c.789 0 1.462.28 2.02.837.558.558.837 1.232.837 2.02 0 .566-.152 1.08-.457 1.54.967.231 1.761.735 2.383 1.513.62.777.932 1.665.932 2.662z"/>
        <g stroke-linecap="round">
            <path d="M9 11.5l2 2M13 11.5l-2 2M11 6.5v7"/>
        </g>
    </g>
</svg>
