<svg xmlns="http://www.w3.org/2000/svg" width="20" height="20" viewBox="0 0 20 20">
    <path fill="#D5D6E1" fill-rule="evenodd" d="M18.02 0H1.864C.834 0 0 .834 0 1.864V18.02c0 1.029.834 1.863 1.864 1.863H18.02c1.029 0 1.863-.834 1.863-1.863V1.864C19.883.834 19.05 0 18.02 0zm-.311.621c.857 0 1.553.696 1.553 1.554v4.35h-5.903V.62h4.35zm-10.563 0h5.592v5.904H7.146V.62zm0 6.525h5.592v5.592H7.146V7.146zM.62 2.175c0-.858.696-1.554 1.554-1.554h4.35v5.904H.62v-4.35zm0 4.97h5.904v5.593H.62V7.146zm1.554 12.117A1.553 1.553 0 0 1 .62 17.709v-4.35h5.904v5.903h-4.35zm4.97-5.903h5.593v5.903H7.146v-5.903zm12.117 4.35c0 .857-.696 1.553-1.553 1.553h-4.35v-5.903h5.903v4.35zM13.359 7.146h5.903v5.592h-5.903V7.146z"/>
</svg>
