<svg xmlns="http://www.w3.org/2000/svg" width="45" height="40" viewBox="0 0 45 40">
    <g fill="#FFF" fill-rule="evenodd">
        <path d="M16.88 19.171a.532.532 0 0 0-.098.04l.099-.04m3.085 3.942a1.02 1.02 0 0 1-.657-.246c-.811-.66-.457-2.315.117-3.649a.499.499 0 0 0 .045-.252c.8.286 1.833.41 2.76.41.304 0 .597-.014.866-.04-.148.349-.31.708-.486 1.074-.65 1.356-1.694 2.703-2.645 2.703m2.547-4.728c-1.084 0-1.862-.486-1.83-1.082.056-.988 1.85-2.278 2.647-2.278.072 0 .136.01.19.033.683.284.578 1.534-.003 3.196-.352.09-.69.13-1.004.13m1.6-5.281c-2.401 0-6.002 2.955-6 4.497 0 .444.272.794.704 1.06l-.21.055a3.95 3.95 0 0 1 .563-.019c1.2.055-2.434 1.774-2.434 1.774l-.559.432c-.222 1.953.407 3.7 1.783 4.443.483.261 1.033.401 1.62.401 1.803 0 3.952-1.32 5.563-4.484.551-1.083.934-2.063 1.174-2.935.265-.142.512-.293.744-.45.22-.706.514-1.447.89-2.216a5.648 5.648 0 0 1-1.358 1.278c.278-2.433-.785-3.735-2.305-3.83a2.754 2.754 0 0 0-.174-.006"/>
        <path d="M35.922 8.813c-.74 0-1.615.243-2.558.769-1.48.826-3.455 2.264-5.25 5.753l-.163.326c-.376.769-.67 1.51-.89 2.217-1.462 4.692.313 7.907 2.873 7.907.145 0 .292-.01.442-.031 2.308-.323 4.27-3.736 4.698-4.373l.079-.142c.04-.321.105-.649.196-.978.04-.145-.128-.28.023-.537.287-.49.904-1.231 1.395-1.677.055-.191.157-.398.296-.613-1.348 1.612-4.434 5.175-5.81 5.175a.73.73 0 0 1-.077-.004c-2.028-.214-1.521-2.962-1.014-4.644.799-2.649 3.461-6.56 5.703-7.04a.436.436 0 0 1 .09-.01c.61 0-.14 1.716-1.018 3.097-.28.441.198.672.818.672.553 0 1.218-.183 1.559-.562.578-.641.853-1.673.907-2.855.07-1.533-.86-2.45-2.299-2.45"/>
        <path d="M38.48 19.06c.424-.098 1.086-.282 1.29-.335.154-.04.19-.161.201-.304.076-.954 1.135-2.474 1.757-2.474.044 0 .087.008.127.024.874.363.336 2.458-.83 4.892-.595 1.239-1.549 2.47-2.418 2.47a.932.932 0 0 1-.6-.225c-.742-.604-.418-2.116.106-3.335a.24.24 0 0 0 .015-.051l.352-.663m3.92-4.874c-1.784 0-4.404 1.81-5.337 3.25-.14.214-.24.42-.296.612-.491.446-1.108 1.187-1.395 1.677-.15.257.017.392-.023.537-.09.33-.156.657-.196.978-.227 1.815.346 3.445 1.62 4.134.442.239.958.366 1.514.366 1.708 0 3.796-1.206 5.268-4.098 2.424-4.76 1.064-7.322-.999-7.452a2.421 2.421 0 0 0-.156-.004M5.701 34.639a2.31 2.31 0 0 1-.336-.025c-1.765-.257-1.352-3.38.837-5.902 1.646-1.894 2.853-3.052 5.52-4.982-.135.917-.338 1.777-.54 2.655-1.092 4.743-3.16 8.254-5.48 8.254M21.551.325c-.29 0-.608.036-.951.118-2.303.556-4.038 2.264-4.483 2.943-.72 1.098-1.797 3.72-2.593 8.079-.23 1.263-.59 1.984-.739 2.322-1.736 2.016-3.23 3.801-4.835 3.801-1.637 0-1.572-2.367-.507-4.336 1.104-2.039 2.577-2.775 2.86-3.435.159-.367.01-.486-.219-.486h-.03c-.176.008-3.341.647-3.85.852-.666.27-1.844 3.52-1.844 3.52-1.134 3.336-1.384 6.87 1.14 7.56.217.058.44.084.665.084 1.063 0 2.176-.577 2.925-.972 1.582-.834 2.534-2.153 3.463-3.294-.187 1.293-.338 3.21-.689 4.592-3.57 1.865-6.549 3.786-9.207 7.29-2.514 3.312-3.992 8.79.287 10.368.53.195 1.05.284 1.556.284 3.245 0 5.886-3.664 7.055-6.198.857-1.856 1.557-5.188 2.564-10.845l.02-.096-.726.56-.226-1.736s.561-.437 1.394-.953c.005-.066.01-.253.013-.281.358-2.338 1.91-9.637 3.768-12.93 1.547-2.744 3.81-5.127 4.663-5.75.229-.166.299-.358.123-.534-.289-.29-.848-.527-1.596-.527"/>
        <path d="M19.016 18.693c-.134 0-.27.007-.409.022-.561.058-1.154.229-1.733.456l-.092.037a14.88 14.88 0 0 0-2.2 1.14c-.833.515-1.394.952-1.394.952l.226 1.736 3.322-2.566s3.634-1.72 2.434-1.774a3.388 3.388 0 0 0-.154-.003"/>
        <path d="M24.067 12.888c2.257.142 3.507 2.945.856 8.154-2.136 4.194-5.215 5.147-7.183 4.083-1.642-.887-2.22-3.202-1.559-5.593.044-.159.183-.518.502-.588.797-.178 1.92-.532 2.105-.54.259-.01.59.192.418.594-.574 1.334-.928 2.988-.117 3.648 1.09.887 2.497-.778 3.302-2.456 1.277-2.663 1.866-4.955.909-5.352-.648-.27-2.776 1.167-2.836 2.245-.045.797 1.523 1.649 3.172 1.152 2.009-.606 3.9-1.719 4.874-4.2.122-.308.464 1.453 1.259.182.056-.09-1.1 3.003-4.75 4.378-.47.178-1.006.293-1.564.403-1.755.346-5.561.049-5.563-1.618-.001-1.58 3.778-4.643 6.175-4.492z"/>
        <path d="M37.427 16.512c-.587.694-4.865 6.042-6.471 5.872-2.028-.213-1.521-2.962-1.014-4.643.799-2.649 3.461-6.56 5.703-7.04.767-.165-.01 1.644-.928 3.087-.531.835 1.653.914 2.377.11.577-.642.853-1.673.907-2.855.107-2.322-2.081-3.23-4.857-1.681-1.48.825-3.455 2.264-5.25 5.753-3.253 6.327-.982 10.872 2.261 10.419 2.309-.323 4.27-3.737 4.699-4.373"/>
        <path d="M36.498 18.139c-.001-1.444 3.647-4.308 5.838-4.17 2.062.13 3.423 2.692 1 7.452-1.952 3.833-4.984 4.704-6.783 3.732-1.5-.811-2.028-2.926-1.424-5.112.04-.145-.128-.28.023-.538.418-.715 1.541-1.965 1.947-2.051.23-.05.952 1.733.794 2.101-.524 1.22-.848 2.731-.107 3.334.996.81 2.283-.711 3.018-2.244 1.167-2.434 1.705-4.529.83-4.892-.591-.246-1.802 1.427-1.883 2.45-.011.143-.047.263-.202.304-.31.08-1.68.465-1.66.384.17-.683.951-1.14.951-1.14l-1.012 1.903M14.36 20.147c.005-.032.01-.27.015-.301.358-2.339 1.91-9.637 3.768-12.93 1.547-2.744 3.81-5.127 4.663-5.75.229-.166.299-.358.123-.534-.401-.402-1.323-.704-2.548-.409-2.303.556-4.038 2.263-4.483 2.942-.72 1.098-1.797 3.722-2.593 8.08-.23 1.263-.591 1.984-.739 2.322-1.736 2.016-3.23 3.801-4.835 3.801-1.637 0-1.573-2.367-.507-4.336 1.103-2.039 2.577-2.775 2.86-3.435.165-.383-.002-.496-.248-.486-.177.008-3.342.647-3.85.852-.667.27-1.845 3.52-1.845 3.52-1.134 3.335-1.384 6.87 1.14 7.56 1.239.337 2.682-.41 3.59-.888 1.582-.834 2.534-2.154 3.463-3.294-.187 1.293-.338 3.21-.689 4.592-3.57 1.865-6.549 3.786-9.207 7.29-2.515 3.312-3.993 8.79.287 10.367 3.942 1.453 7.26-2.985 8.611-5.913.857-1.857 1.557-5.188 2.563-10.845m-2.937 3.813c-1.144 4.97-3.36 8.588-5.817 8.23-1.765-.258-1.352-3.382.837-5.903 1.645-1.894 2.853-3.053 5.52-4.983-.135.918-.338 1.777-.54 2.656"/>
        <path d="M12.968 21.08s3.49-2.717 5.982-2.604c1.2.054-2.434 1.774-2.434 1.774l-3.322 2.566"/>
    </g>
</svg>
