<svg xmlns="http://www.w3.org/2000/svg" xmlns:xlink="http://www.w3.org/1999/xlink" width="16" height="17" viewBox="0 0 16 17">
    <defs>
        <path id="a" d="M.002.015H16v16.618H.002z"/>
    </defs>
    <g fill="none" fill-rule="evenodd">
        <mask id="b" fill="#fff">
            <use xlink:href="#a"/>
        </mask>
        <path fill="#FFF" d="M8.948 11.4H3.503c-.51 0-.51.796 0 .796h5.445c.51 0 .51-.796 0-.796z" mask="url(#b)"/>
        <path fill="#FFF" d="M15.922 13.024V4.426c0-1.147-.605-1.752-1.751-1.752h-1.465v-.51c0-.986-.128-2.005-1.37-2.101-.891-.064-1.815 0-2.706 0H3.79c-.86 0-1.816-.127-2.675.032C0 .318 0 1.369 0 2.26v12.42c0 .955.223 1.847 1.37 1.91.955.064 1.942 0 2.897 0H14.33c.732 0 1.401-.318 1.56-1.114.16-.733.032-1.656.032-2.452zm-.891 2.452c-.287.541-1.242.35-1.784.35H2.197c-.669 0-1.337.064-1.4-.796-.065-.892 0-1.815 0-2.707V3.757c0-.732-.096-1.528 0-2.26C.923.636 2.07.89 2.706.89h7.897c.223 0 .478-.032.7 0 .542.096.574.478.574.892v11.655c0 .51.796.51.796 0V3.47h1.242c.541 0 1.083-.064 1.178.636.128.86 0 1.784 0 2.643v7.961c.032.287.064.542-.063.765z" mask="url(#b)"/>
    </g>
</svg>
