<svg xmlns="http://www.w3.org/2000/svg" width="19" height="14" viewBox="0 0 19 14">
    <g fill="#FFF" fill-rule="evenodd" opacity=".4">
        <path d="M16.335.035H1.69A1.69 1.69 0 0 0 0 1.725v10.139c0 .933.756 1.69 1.69 1.69h14.645a1.69 1.69 0 0 0 1.689-1.69V1.725a1.69 1.69 0 0 0-1.69-1.69zm1.126 11.547c0 .778-.63 1.409-1.408 1.409H1.97c-.777 0-1.408-.63-1.408-1.409v-7.04h16.898v7.04zm0-7.604H.563V2.006c0-.777.63-1.408 1.408-1.408h14.082c.777 0 1.408.63 1.408 1.408v1.972z"/>
        <path d="M13.236 6.23h2.817a.282.282 0 1 0 0-.562h-2.817a.282.282 0 0 0 0 .563z"/>
    </g>
</svg>
