<svg xmlns="http://www.w3.org/2000/svg" width="20" height="19" viewBox="0 0 20 19">
    <g fill="#D5D6E1" fill-rule="evenodd" opacity=".4">
        <path d="M16.273.047H3.686A3.69 3.69 0 0 0 0 3.733v7.663a3.69 3.69 0 0 0 3.686 3.686h8.69l3.14 3.14a.49.49 0 0 0 .839-.347V15.08a3.69 3.69 0 0 0 3.604-3.685V3.733A3.69 3.69 0 0 0 16.273.047zm2.703 11.35a2.706 2.706 0 0 1-2.703 2.702h-.41a.491.491 0 0 0-.491.491v2.099l-2.446-2.446a.491.491 0 0 0-.347-.144H3.686a2.706 2.706 0 0 1-2.703-2.703V3.733A2.706 2.706 0 0 1 3.686 1.03h12.587a2.706 2.706 0 0 1 2.703 2.703v7.663z"/>
        <path d="M7.162 6.525H3.879a.407.407 0 0 1-.409-.409c0-.228.182-.41.409-.41h3.283a.41.41 0 1 1 0 .819zM12.905 6.525H8.803a.41.41 0 1 1 0-.82h4.102a.41.41 0 1 1 0 .82zM16.187 6.525h-1.64a.41.41 0 1 1 0-.82h1.64a.409.409 0 1 1 0 .82zM5.522 9.576H3.879a.41.41 0 1 1 0-.819h1.643c.226 0 .408.182.408.41a.408.408 0 0 1-.408.409zM10.444 9.576H7.162a.41.41 0 1 1 0-.82h3.282a.41.41 0 1 1 0 .82zM16.187 9.576h-4.103a.41.41 0 1 1 0-.819h4.103a.409.409 0 1 1 0 .819z"/>
    </g>
</svg>
