<svg xmlns="http://www.w3.org/2000/svg" width="12" height="17" viewBox="0 0 12 17">
    <path fill="#FFF" fill-rule="evenodd" d="M5.943 16.07A5.95 5.95 0 0 1 0 10.129V.375C0 .168.168 0 .375 0H11.51c.208 0 .376.168.376.375v9.753a5.95 5.95 0 0 1-5.943 5.943zM.751.752v9.377a5.198 5.198 0 0 0 5.192 5.192 5.198 5.198 0 0 0 5.192-5.192V.751H.75zm7.623 8.935H3.512a.376.376 0 0 1-.375-.376V8.244L2.219 5.85a.375.375 0 0 1 .57-.44l1.868 1.347.93-2.792a.376.376 0 0 1 .712 0l.93 2.792L9.097 5.41a.376.376 0 0 1 .57.439l-.918 2.395V9.31a.376.376 0 0 1-.375.376zm-4.486-.751h4.11v-.76c0-.046.009-.092.025-.135l.493-1.286-1.263.91a.376.376 0 0 1-.576-.187l-.734-2.206-.735 2.206a.374.374 0 0 1-.575.186l-1.263-.91.493 1.287a.374.374 0 0 1 .025.135v.76z" opacity=".4"/>
</svg>
