<?xml version="1.0"?>
<!--Icons from directory ""-->
<svg xmlns="http://www.w3.org/2000/svg" width="28" height="226" viewBox="0 0 28 226"><svg xmlns:xlink="http://www.w3.org/1999/xlink" width="25" height="24" viewBox="-4 -4 25 24" id="nav-adjusts" y="0"><defs><path id="nav-adjusts-a" d="M.027.417h16.862v15.555H.027z"/></defs><g fill="none" fill-rule="evenodd" opacity=".4"><mask id="nav-adjusts-b" fill="#fff"><use xlink:href="#nav-adjusts-a"/></mask><path fill="#FFF" d="M2.268 11.77V.99a.355.355 0 1 0-.712 0v10.78A1.912 1.912 0 0 0 0 13.643c0 1.054.858 1.912 1.912 1.912a1.914 1.914 0 0 0 1.911-1.912c0-.932-.672-1.708-1.555-1.875zm-.356 3.074a1.2 1.2 0 0 1 0-2.4c.66 0 1.2.54 1.2 1.2 0 .662-.54 1.2-1.2 1.2z" mask="url(#nav-adjusts-b)"/><path fill="#FFF" d="M14.792.417a1.914 1.914 0 0 0-1.912 1.911c0 .933.672 1.707 1.556 1.876v10.78a.357.357 0 0 0 .712 0V4.203a1.913 1.913 0 0 0 1.555-1.876 1.914 1.914 0 0 0-1.911-1.91zm0 3.111c-.662 0-1.2-.538-1.2-1.2a1.2 1.2 0 1 1 1.2 1.2zM8.637 6.004V.99a.355.355 0 1 0-.712 0v5.014A1.912 1.912 0 0 0 6.37 7.879c0 .93.672 1.706 1.555 1.873v5.016c0 .196.16.354.356.354a.355.355 0 0 0 .356-.354V9.754a1.913 1.913 0 0 0 1.556-1.875c0-.932-.672-1.708-1.556-1.875zm0 3.014a1.16 1.16 0 0 1-.356.06c-.125 0-.243-.024-.356-.06a1.198 1.198 0 0 1-.843-1.14c0-.537.357-.987.843-1.14.113-.036.231-.06.356-.06.125 0 .243.024.356.06.488.153.844.603.844 1.14 0 .537-.356.987-.844 1.14z"/></g></svg><svg width="20" height="25" viewBox="-4 -4 20 25" id="nav-admin" y="24"><path fill="#FFF" fill-rule="evenodd" d="M5.943 16.07A5.95 5.95 0 0 1 0 10.129V.375C0 .168.168 0 .375 0H11.51c.208 0 .376.168.376.375v9.753a5.95 5.95 0 0 1-5.943 5.943zM.751.752v9.377a5.198 5.198 0 0 0 5.192 5.192 5.198 5.198 0 0 0 5.192-5.192V.751H.75zm7.623 8.935H3.512a.376.376 0 0 1-.375-.376V8.244L2.219 5.85a.375.375 0 0 1 .57-.44l1.868 1.347.93-2.792a.376.376 0 0 1 .712 0l.93 2.792L9.097 5.41a.376.376 0 0 1 .57.439l-.918 2.395V9.31a.376.376 0 0 1-.375.376zm-4.486-.751h4.11v-.76c0-.046.009-.092.025-.135l.493-1.286-1.263.91a.376.376 0 0 1-.576-.187l-.734-2.206-.735 2.206a.374.374 0 0 1-.575.186l-1.263-.91.493 1.287a.374.374 0 0 1 .025.135v.76z" opacity=".4"/></svg><svg width="24" height="24" viewBox="-4 -4 24 24" id="nav-feedback" y="49"><path fill="#D5D6E1" fill-rule="evenodd" d="M.396 15.99c.02 0 .038-.002.059-.006l4.571-.759a.262.262 0 0 0 .056-.017c.01-.004.019-.005.027-.009a.343.343 0 0 0 .103-.07c.003-.001.007-.001.008-.005L15.788 4.493a.356.356 0 0 0 .104-.254.354.354 0 0 0-.104-.253L11.968.144a.355.355 0 0 0-.5 0L.898 10.777c-.003.004-.003.007-.007.01a.36.36 0 0 0-.068.103c-.003.01-.004.018-.008.026-.005.02-.014.037-.017.056l-.754 4.6a.358.358 0 0 0 .351.417zM11.719.901l3.316 3.337L4.969 14.366 1.653 11.03 11.719.902zM1.389 11.776l2.291 2.307.548.55-3.4.564.56-3.421z" opacity=".4"/></svg><svg width="28" height="27" viewBox="-4 -4 28 27" id="nav-feeds" y="73"><g fill="#D5D6E1" fill-rule="evenodd" opacity=".4"><path d="M16.273.047H3.686A3.69 3.69 0 0 0 0 3.733v7.663a3.69 3.69 0 0 0 3.686 3.686h8.69l3.14 3.14a.49.49 0 0 0 .839-.347V15.08a3.69 3.69 0 0 0 3.604-3.685V3.733A3.69 3.69 0 0 0 16.273.047zm2.703 11.35a2.706 2.706 0 0 1-2.703 2.702h-.41a.491.491 0 0 0-.491.491v2.099l-2.446-2.446a.491.491 0 0 0-.347-.144H3.686a2.706 2.706 0 0 1-2.703-2.703V3.733A2.706 2.706 0 0 1 3.686 1.03h12.587a2.706 2.706 0 0 1 2.703 2.703v7.663z"/><path d="M7.162 6.525H3.879a.407.407 0 0 1-.409-.409c0-.228.182-.41.409-.41h3.283a.41.41 0 1 1 0 .819zm5.743 0H8.803a.41.41 0 1 1 0-.82h4.102a.41.41 0 1 1 0 .82zm3.282 0h-1.64a.41.41 0 1 1 0-.82h1.64a.409.409 0 1 1 0 .82zM5.522 9.576H3.879a.41.41 0 1 1 0-.819h1.643c.226 0 .408.182.408.41a.408.408 0 0 1-.408.409zm4.922 0H7.162a.41.41 0 1 1 0-.82h3.282a.41.41 0 1 1 0 .82zm5.743 0h-4.103a.41.41 0 1 1 0-.819h4.103a.409.409 0 1 1 0 .819z"/></g></svg><svg width="28" height="28" viewBox="-4 -4 28 28" id="nav-hours" y="100"><g fill="#FFF" fill-rule="evenodd" opacity=".4"><path d="M18.814 6.108C17.78 3.699 16.026 1.947 13.596.91A9.626 9.626 0 0 0 9.782.13 9.53 9.53 0 0 0 5.98.91C3.57 1.945 1.807 3.695.77 6.108A9.548 9.548 0 0 0 0 9.91a9.6 9.6 0 0 0 .771 3.814c1.036 2.413 2.8 4.174 5.208 5.208a9.53 9.53 0 0 0 3.803.78c1.329 0 2.6-.263 3.814-.78 2.429-1.036 4.184-2.8 5.218-5.208a9.583 9.583 0 0 0 .782-3.814 9.512 9.512 0 0 0-.782-3.803zm-1.564 8.131a8.587 8.587 0 0 1-3.15 3.14 8.434 8.434 0 0 1-4.318 1.157 8.294 8.294 0 0 1-3.342-.686c-1.062-.461-1.977-1.066-2.743-1.832-.766-.766-1.377-1.69-1.832-2.754a8.423 8.423 0 0 1-.675-3.353c0-1.553.381-2.992 1.146-4.307a8.598 8.598 0 0 1 3.14-3.14 8.375 8.375 0 0 1 4.306-1.157A8.44 8.44 0 0 1 14.1 2.465a8.63 8.63 0 0 1 3.151 3.14 8.375 8.375 0 0 1 1.156 4.306 8.455 8.455 0 0 1-1.156 4.328z"/><path d="M10.403 9.825v-5.55c0-.332-.29-.6-.62-.6a.604.604 0 0 0-.59.6v5.636c0 .01.021.054.021.085a.564.564 0 0 0 .16.483l3.204 3.204a.61.61 0 0 0 .825 0 .577.577 0 0 0 0-.836l-3-3.022z"/></g></svg><svg width="27" height="22" viewBox="-4 -4 27 22" id="nav-payroll" y="128"><g fill="#FFF" fill-rule="evenodd" opacity=".4"><path d="M16.335.035H1.69A1.69 1.69 0 0 0 0 1.725v10.139c0 .933.756 1.69 1.69 1.69h14.645a1.69 1.69 0 0 0 1.689-1.69V1.725a1.69 1.69 0 0 0-1.69-1.69zm1.126 11.547c0 .778-.63 1.409-1.408 1.409H1.97c-.777 0-1.408-.63-1.408-1.409v-7.04H17.46v7.04zm0-7.604H.563V2.006c0-.777.63-1.408 1.408-1.408h14.082c.777 0 1.408.63 1.408 1.408v1.972z"/><path d="M13.236 6.23h2.817a.282.282 0 1 0 0-.562h-2.817a.282.282 0 0 0 0 .563z"/></g></svg><svg width="28" height="23" viewBox="-4 -4 28 23" id="nav-peers" y="150"><path fill="#D5D6E1" fill-rule="evenodd" d="M16.246 9.058A3.028 3.028 0 0 0 17.34 6.73c0-1.574-1.278-2.966-2.739-2.966-1.46 0-2.737 1.392-2.737 2.966 0 .935.433 1.78 1.095 2.327-.297.115-.57.228-.844.388-.867-1.026-2.008-1.825-3.331-2.213 1.003-.708 1.71-1.917 1.71-3.24 0-2.076-1.71-3.879-3.65-3.879s-3.651 1.803-3.651 3.88c0 1.322.708 2.531 1.711 3.24C2.077 8.077 0 10.7 0 13.803c0 .25.205.457.457.457h18.708a.459.459 0 0 0 .457-.457 5.04 5.04 0 0 0-3.376-4.746zM12.777 6.73c0-.958.8-2.054 1.825-2.054 1.028 0 1.826 1.096 1.826 2.054 0 .958-.798 2.053-1.826 2.053-1.026 0-1.825-1.095-1.825-2.053zm-8.67-2.738c0-1.392 1.164-2.967 2.738-2.967S9.583 2.6 9.583 3.992c0 1.392-1.164 2.966-2.738 2.966S4.106 5.385 4.106 3.993zM.935 13.347c.227-3.057 2.806-5.476 5.909-5.476a5.925 5.925 0 0 1 5.91 5.476H.934zm12.732 0a6.535 6.535 0 0 0-1.028-3.148 4.105 4.105 0 0 1 6.047 3.148h-5.02z" opacity=".4"/></svg><svg xmlns:xlink="http://www.w3.org/1999/xlink" width="24" height="25" viewBox="-4 -4 24 25" id="nav-reports" y="173"><defs><path id="nav-reports-a" d="M.002.015H16v16.618H.002z"/></defs><g fill="none" fill-rule="evenodd"><mask id="nav-reports-b" fill="#fff"><use xlink:href="#nav-reports-a"/></mask><path fill="#FFF" d="M8.948 11.4H3.503c-.51 0-.51.796 0 .796h5.445c.51 0 .51-.796 0-.796z" mask="url(#nav-reports-b)"/><path fill="#FFF" d="M15.922 13.024V4.426c0-1.147-.605-1.752-1.751-1.752h-1.465v-.51c0-.986-.128-2.005-1.37-2.101-.891-.064-1.815 0-2.706 0H3.79c-.86 0-1.816-.127-2.675.032C0 .318 0 1.369 0 2.26v12.42c0 .955.223 1.847 1.37 1.91.955.064 1.942 0 2.897 0H14.33c.732 0 1.401-.318 1.56-1.114.16-.733.032-1.656.032-2.452zm-.891 2.452c-.287.541-1.242.35-1.784.35H2.197c-.669 0-1.337.064-1.4-.796-.065-.892 0-1.815 0-2.707V3.757c0-.732-.096-1.528 0-2.26C.923.636 2.07.89 2.706.89h7.897c.223 0 .478-.032.7 0 .542.096.574.478.574.892v11.655c0 .51.796.51.796 0V3.47h1.242c.541 0 1.083-.064 1.178.636.128.86 0 1.784 0 2.643v7.961c.032.287.064.542-.063.765z" mask="url(#nav-reports-b)"/></g></svg><svg width="28" height="28" viewBox="-4 -4 28 28" id="nav-settings" y="198"><path fill="#D5D6E1" fill-rule="evenodd" d="M11.051 19.523H8.957c-.316 0-.424.001-1.498-2.66l-.83-.336c-2.259 1.024-2.527 1.024-2.616 1.024H3.84l-.148-.126-1.484-1.452c-.226-.226-.304-.304.858-2.93l-.339-.8C0 11.265 0 11.153 0 10.83V8.777c0-.32 0-.423 2.72-1.474l.337-.802c-1.23-2.584-1.145-2.666-.902-2.894l1.597-1.566.198-.005c.24 0 1.135.326 2.66.97l.827-.336C8.433 0 8.555 0 8.869 0h2.094c.313 0 .423 0 1.498 2.661l.83.335c2.256-1.024 2.526-1.024 2.618-1.024h.171l.148.125 1.484 1.45c.226.226.303.305-.859 2.932l.34.805c2.73.973 2.73 1.086 2.73 1.408v2.052c0 .314 0 .424-2.722 1.476l-.336.803c1.223 2.573 1.141 2.654.914 2.886l-1.609 1.574-.2.005c-.24 0-1.131-.326-2.655-.971l-.832.336c-.999 2.67-1.11 2.67-1.432 2.67zm-1.876-.848h1.652c.189-.385.6-1.411.927-2.293l.067-.176 1.503-.606.163.067c.895.383 1.955.807 2.367.936l1.162-1.134c-.148-.41-.594-1.41-.999-2.252l-.081-.172.623-1.486.168-.065c.907-.35 1.955-.78 2.347-.974V8.925c-.395-.187-1.441-.585-2.342-.904l-.176-.063-.627-1.487.075-.168c.385-.87.815-1.896.953-2.309L15.79 2.857c-.375.13-1.426.582-2.314.986l-.165.077-1.503-.607-.068-.168c-.355-.886-.797-1.915-.997-2.296h-1.65c-.19.386-.598 1.41-.926 2.293l-.064.173-1.5.61-.163-.07c-.898-.38-1.96-.803-2.373-.934l-1.16 1.136c.146.408.595 1.408.996 2.25l.083.172-.625 1.486-.168.065c-.905.348-1.952.778-2.344.973V10.6c.396.188 1.44.585 2.34.907l.175.064.627 1.48-.074.169c-.386.868-.814 1.894-.952 2.305l1.165 1.141c.376-.13 1.425-.583 2.313-.987l.167-.076 1.501.61.067.166c.358.888.798 1.916.997 2.296zm.786-5.498c-1.92 0-3.484-1.531-3.484-3.415 0-1.883 1.563-3.415 3.484-3.415 1.919 0 3.48 1.532 3.48 3.415 0 1.884-1.561 3.415-3.48 3.415zm0-5.983c-1.454 0-2.634 1.152-2.634 2.568 0 1.415 1.18 2.568 2.634 2.568 1.452 0 2.632-1.153 2.632-2.568 0-1.416-1.18-2.568-2.632-2.568z" opacity=".4"/></svg></svg>
