<svg xmlns="http://www.w3.org/2000/svg" width="20" height="20" viewBox="0 0 20 20">
    <g fill="#FFF" fill-rule="evenodd" opacity=".4">
        <path d="M18.814 6.108C17.78 3.699 16.026 1.947 13.596.91A9.626 9.626 0 0 0 9.782.13 9.53 9.53 0 0 0 5.98.91C3.57 1.945 1.807 3.695.77 6.108A9.548 9.548 0 0 0 0 9.91a9.6 9.6 0 0 0 .771 3.814c1.036 2.413 2.8 4.174 5.208 5.208a9.53 9.53 0 0 0 3.803.78c1.329 0 2.6-.263 3.814-.78 2.429-1.036 4.184-2.8 5.218-5.208a9.583 9.583 0 0 0 .782-3.814c0-1.329-.261-2.591-.782-3.803zm-1.564 8.131a8.587 8.587 0 0 1-3.15 3.14 8.434 8.434 0 0 1-4.318 1.157 8.294 8.294 0 0 1-3.342-.686c-1.062-.461-1.977-1.066-2.743-1.832-.766-.766-1.377-1.69-1.832-2.754a8.423 8.423 0 0 1-.675-3.353c0-1.553.381-2.992 1.146-4.307a8.598 8.598 0 0 1 3.14-3.14 8.375 8.375 0 0 1 4.306-1.157A8.44 8.44 0 0 1 14.1 2.465a8.63 8.63 0 0 1 3.151 3.14 8.375 8.375 0 0 1 1.156 4.306 8.455 8.455 0 0 1-1.156 4.328z"/>
        <path d="M10.403 9.825v-5.55c0-.332-.29-.6-.62-.6a.604.604 0 0 0-.59.6v5.636c0 .01.021.054.021.085a.564.564 0 0 0 .16.483l3.204 3.204a.61.61 0 0 0 .825 0 .577.577 0 0 0 0-.836l-3-3.022z"/>
    </g>
</svg>
