<svg xmlns="http://www.w3.org/2000/svg" xmlns:xlink="http://www.w3.org/1999/xlink" width="17" height="16" viewBox="0 0 17 16">
    <defs>
        <path id="a" d="M.027.417h16.862v15.555H.027z"/>
    </defs>
    <g fill="none" fill-rule="evenodd" opacity=".4">
        <g>
            <mask id="b" fill="#fff">
                <use xlink:href="#a"/>
            </mask>
            <path fill="#FFF" d="M2.268 11.77V.99a.355.355 0 1 0-.712 0v10.78A1.912 1.912 0 0 0 0 13.643c0 1.054.858 1.912 1.912 1.912a1.914 1.914 0 0 0 1.911-1.912c0-.932-.672-1.708-1.555-1.875zm-.356 3.074a1.2 1.2 0 0 1 0-2.4c.66 0 1.2.54 1.2 1.2 0 .662-.54 1.2-1.2 1.2z" mask="url(#b)"/>
        </g>
        <path fill="#FFF" d="M14.792.417a1.914 1.914 0 0 0-1.912 1.911c0 .933.672 1.707 1.556 1.876v10.78a.357.357 0 0 0 .712 0V4.203a1.913 1.913 0 0 0 1.555-1.876A1.914 1.914 0 0 0 14.792.417zm0 3.111c-.662 0-1.2-.538-1.2-1.2a1.2 1.2 0 1 1 1.2 1.2zM8.637 6.004V.99a.355.355 0 1 0-.712 0v5.014A1.912 1.912 0 0 0 6.37 7.879c0 .93.672 1.706 1.555 1.873v5.016c0 .196.16.354.356.354a.355.355 0 0 0 .356-.354V9.754a1.913 1.913 0 0 0 1.556-1.875c0-.932-.672-1.708-1.556-1.875zm0 3.014c-.113.036-.23.06-.356.06-.125 0-.243-.024-.356-.06a1.198 1.198 0 0 1-.843-1.14c0-.537.357-.987.843-1.14.113-.036.231-.06.356-.06.125 0 .243.024.356.06.488.153.844.603.844 1.14 0 .537-.356.987-.844 1.14z"/>
    </g>
</svg>
