<svg xmlns="http://www.w3.org/2000/svg" width="20" height="20" viewBox="0 0 20 20">
    <path fill="#D5D6E1" fill-rule="evenodd" d="M11.051 19.523H8.957c-.316 0-.424.001-1.498-2.66l-.83-.336c-2.259 1.024-2.527 1.024-2.616 1.024H3.84l-.148-.126-1.484-1.452c-.226-.226-.304-.304.858-2.93l-.339-.8C0 11.265 0 11.153 0 10.83V8.777c0-.32 0-.423 2.72-1.474l.337-.802c-1.23-2.584-1.145-2.666-.902-2.894l1.597-1.566.198-.005c.24 0 1.135.326 2.66.97l.827-.336C8.433 0 8.555 0 8.869 0h2.094c.313 0 .423 0 1.498 2.661l.83.335c2.256-1.024 2.526-1.024 2.618-1.024h.171l.148.125 1.484 1.45c.226.226.303.305-.859 2.932l.34.805c2.73.973 2.73 1.086 2.73 1.408v2.052c0 .314 0 .424-2.722 1.476l-.336.803c1.223 2.573 1.141 2.654.914 2.886l-1.609 1.574-.2.005c-.24 0-1.131-.326-2.655-.971l-.832.336c-.999 2.67-1.11 2.67-1.432 2.67zm-1.876-.848h1.652c.189-.385.6-1.411.927-2.293l.067-.176 1.503-.606.163.067c.895.383 1.955.807 2.367.936l1.162-1.134c-.148-.41-.594-1.41-.999-2.252l-.081-.172.623-1.486.168-.065c.907-.35 1.955-.78 2.347-.974V8.925c-.395-.187-1.441-.585-2.342-.904l-.176-.063-.627-1.487.075-.168c.385-.87.815-1.896.953-2.309L15.79 2.857c-.375.13-1.426.582-2.314.986l-.165.077-1.503-.607-.068-.168c-.355-.886-.797-1.915-.997-2.296H9.093c-.19.386-.598 1.41-.926 2.293l-.064.173-1.5.61-.163-.07c-.898-.38-1.96-.803-2.373-.934l-1.16 1.136c.146.408.595 1.408.996 2.25l.083.172-.625 1.486-.168.065c-.905.348-1.952.778-2.344.973V10.6c.396.188 1.44.585 2.34.907l.175.064.627 1.48-.074.169c-.386.868-.814 1.894-.952 2.305l1.165 1.141c.376-.13 1.425-.583 2.313-.987l.167-.076 1.501.61.067.166c.358.888.798 1.916.997 2.296zm.786-5.498c-1.92 0-3.484-1.531-3.484-3.415 0-1.883 1.563-3.415 3.484-3.415 1.919 0 3.48 1.532 3.48 3.415 0 1.884-1.561 3.415-3.48 3.415zm0-5.983c-1.454 0-2.634 1.152-2.634 2.568 0 1.415 1.18 2.568 2.634 2.568 1.452 0 2.632-1.153 2.632-2.568 0-1.416-1.18-2.568-2.632-2.568z" opacity=".4"/>
</svg>
