<svg xmlns="http://www.w3.org/2000/svg" width="16" height="16" viewBox="0 0 16 16">
    <path fill="#D5D6E1" fill-rule="evenodd" d="M.396 15.99c.02 0 .038-.002.059-.006l4.571-.759a.262.262 0 0 0 .056-.017c.01-.004.019-.005.027-.009a.343.343 0 0 0 .103-.07c.003-.001.007-.001.008-.005L15.788 4.493a.356.356 0 0 0 .104-.254.354.354 0 0 0-.104-.253L11.968.144a.355.355 0 0 0-.5 0L.898 10.777c-.003.004-.003.007-.007.01a.36.36 0 0 0-.068.103c-.003.01-.004.018-.008.026-.005.02-.014.037-.017.056l-.754 4.6a.358.358 0 0 0 .351.417zM11.719.901l3.316 3.337L4.969 14.366 1.653 11.03 11.719.902zM1.389 11.776l2.291 2.307.548.55-3.4.564.56-3.421z" opacity=".4"/>
</svg>
